<?xml version="1.0" encoding="utf-8"?>
<!-- Generator: Adobe Illustrator 17.0.2, SVG Export Plug-In . SVG Version: 6.00 Build 0)  -->
<!DOCTYPE svg PUBLIC "-//W3C//DTD SVG 1.1//EN" "http://www.w3.org/Graphics/SVG/1.1/DTD/svg11.dtd">
<svg version="1.1" id="Capa_1" xmlns="http://www.w3.org/2000/svg" xmlns:xlink="http://www.w3.org/1999/xlink" x="0px" y="0px"
	 width="22.181px" height="32.25px" viewBox="0 0 22.181 32.25" enable-background="new 0 0 22.181 32.25" xml:space="preserve">
<g>
	<path fill="#ECC552" d="M21.56,10.701c0,5.61-5.221,11.285-5.821,12.725c-0.25,0.6-0.391,1.155-0.391,1.785V26H6.75
		c-0.01-1-0.08-1.749-0.33-2.349c-0.6-1.43-5.8-7.255-5.8-12.865c0-5.08,3.16-9.038,8.66-9.758C9.83,0.958,10.41,1,11.01,1h0.1
		C17.68,1,21.56,5.101,21.56,10.701z"/>
	<path fill="#ACACAC" d="M15.347,26c0,0,0-0.733,0-0.731c0,0.004,0,0.01,0,0.013c0,3.34-1.212,4.718-2.224,5.718H9.11
		c-1.032-1-2.122-2-2.373-5H15.347z"/>
	<path fill="#858585" d="M9.56,31.058c0.042,0.324,0.308,0.577,0.643,0.577h1.979c0.335,0,0.601-0.254,0.643-0.577H9.56z"/>
	<path opacity="0.6" fill="#FFFFFF" d="M11.347,0.781V31H9.11c-1.03-1-2.12-2-2.37-5h0.01c-0.01-1-0.08-1.749-0.33-2.349
		c-0.6-1.43-5.8-7.255-5.8-12.865c0-5.08,3.329-9.147,8.829-9.867C9.999,0.849,10.347,0.781,11.347,0.781z"/>
</g>
</svg>
