<?xml version="1.0" encoding="utf-8"?>
<!-- Generator: Adobe Illustrator 17.0.2, SVG Export Plug-In . SVG Version: 6.00 Build 0)  -->
<!DOCTYPE svg PUBLIC "-//W3C//DTD SVG 1.1//EN" "http://www.w3.org/Graphics/SVG/1.1/DTD/svg11.dtd">
<svg version="1.1" id="Capa_1" xmlns="http://www.w3.org/2000/svg" xmlns:xlink="http://www.w3.org/1999/xlink" x="0px" y="0px"
	 width="31.5px" height="30px" viewBox="0 0 31.5 30" enable-background="new 0 0 31.5 30" xml:space="preserve">
<g>
	<g>
		<g>
			<path fill="#ACACAC" d="M30,10.25v6H10.685C9.538,16.25,8,16.505,8,17.505c0,0.919,0,2.745,0,2.745H3.695
				c0,0-0.015-4.081-0.015-6.278c0-0.419,0.015-0.571,0.051-0.931c0.007-0.059,0.015,0.045,0.029-0.014
				c0.287-2.021,1.492-2.777,5.534-2.777H30z"/>
			<path opacity="0.1" d="M30,10.25v3H3.761c0.287-2,1.492-3,5.534-3H30z"/>
			<path fill="#A1A1A1" d="M30,9.25v8h-0.127c-1.448,0-3.873-1.043-3.873-2.491v-2.621c0-2.599,2.634-2.888,3.873-2.888H30z"/>
			<g>
				<path fill="#A1A1A1" d="M11.339,21.226c0,0.536-0.434,1.024-0.97,1.024H2.394c-0.544,0-0.978-0.48-0.978-1.017
					c0-0.125,0.022-0.218,0.074-0.336c0.044-0.154,0.118-0.243,0.213-0.339c0.176-0.176,0.419-0.309,0.691-0.309h7.974
					c0.412,0,0.764,0.267,0.904,0.672C11.317,21.039,11.339,21.101,11.339,21.226z"/>
				<path opacity="0.1" d="M11.273,21.25H1.491c0.044,0,0.118-0.419,0.213-0.515c0.176-0.176,0.419-0.485,0.691-0.485h7.974
					C10.78,20.25,11.133,20.25,11.273,21.25z"/>
			</g>
		</g>
		<rect x="14" y="2.25" fill="#A1A1A1" width="4" height="8"/>
		<rect x="14" y="2.25" opacity="0.1" width="4" height="3"/>
		<path fill="#A1A1A1" d="M21,7.276v9.035c0,0.781-0.049,0.939-0.92,0.939h-6.168c-0.871,0-2.912-0.158-2.912-0.939V7.276
			c0-0.781,2.041-1.026,2.912-1.026h6.168C20.951,6.25,21,6.495,21,7.276z"/>
		<ellipse fill="#669DD2" cx="16.37" cy="11.891" rx="2.817" ry="2.914"/>
		<path opacity="0.1" d="M21,7.276v3.974H11V7.276c0-0.781,2.041-1.026,2.912-1.026h6.168C20.951,6.25,21,6.495,21,7.276z"/>
		<g>
			<path fill="#BC5B41" d="M22,1.747v0.906c0,0.5-0.283,0.597-0.901,0.597h-8.938C11.545,3.25,10,3.153,10,2.653V1.747
				c0-0.397,1.362-0.497,1.794-0.497h9.669C21.89,1.25,22,1.351,22,1.747z"/>
			<path opacity="0.1" d="M22,1.747V2.25H10V1.747c0-0.397,1.362-0.497,1.794-0.497h9.669C21.89,1.25,22,1.351,22,1.747z"/>
		</g>
	</g>
	<path fill="#669DD2" d="M7.812,27.873c0,0.833-0.69,1.507-1.541,1.507s-1.541-0.675-1.541-1.507s1.541-4.351,1.541-4.351
		S7.812,27.041,7.812,27.873z"/>
</g>
<g>
	<path fill="#ECC552" d="M25.593,67.018c0,5.61-5.411,11.319-6.011,12.759c-0.25,0.6-0.581,1.189-0.581,1.819v0.653h-8.217
		c-0.01-1-0.08-1.682-0.33-2.282c-0.6-1.43-5.8-7.221-5.8-12.831c0-5.08,3.16-9.089,8.66-9.809c0.55-0.07,1.13-0.079,1.73-0.079h0.1
		C21.713,57.25,25.593,61.418,25.593,67.018z"/>
	<path fill="#ACACAC" d="M19,82.25c0,0,0-0.598,0-0.596c0,0.004,0,0.01,0,0.013c0,3.34-0.832,4.582-1.844,5.582h-4.014
		c-1.032-1-2.122-2-2.373-5H19z"/>
	<path fill="#858585" d="M13.593,87.443c0.042,0.324,0.308,0.577,0.643,0.577h1.979c0.335,0,0.601-0.254,0.643-0.577H13.593z"/>
	<path opacity="0.6" fill="#FFFFFF" d="M15,57.167V87.25h-1.857c-1.03-1-2.12-2-2.37-5h0.01c-0.01-1-0.08-1.682-0.33-2.282
		c-0.6-1.43-5.8-7.221-5.8-12.831c0-5.08,3.139-9.13,8.639-9.85C13.841,57.217,14,57.167,15,57.167z"/>
</g>
<g>
	<g>
		<path fill="#414240" d="M11.102,34.42l10.957,0.06c0,0,1.906-0.06,2.977,0.953c1.072,1.012,6.312,6.848,6.312,6.848l-25.07-0.119
			L11.102,34.42z"/>
		<path fill="#666666" d="M11.71,35.234l10.796,0.033c0,0,1.049-0.033,1.639,0.525s2.999,3.294,2.999,3.294l-17.59-0.159
			L11.71,35.234z"/>
	</g>
	<path fill="#6FC3C8" d="M33.531,46.985v2.439l-36.244-0.114v-2.325c0-0.576,0.067-1.134,0.2-1.667
		c0.257-1.067,0.758-2.039,1.448-2.858c0.943-1.148,2.249-1.991,3.745-2.382c0.591-0.157,1.215-0.238,1.858-0.238h21.748
		c0.643,0,1.267,0.081,1.858,0.238c1.491,0.391,2.797,1.239,3.74,2.382c0.691,0.819,1.191,1.791,1.448,2.858
		C33.464,45.851,33.531,46.408,33.531,46.985z"/>
	<path opacity="0.2" d="M33,46.985v2.439l-36-0.114v-2.325c0-0.576,0.21-1.238,0.343-1.772c0.257-1.067,0.901-1.963,1.591-2.963
		h32.948c0.691,1,0.926,1.896,1.183,2.963C33.199,45.746,33,46.408,33,46.985z"/>
	<g>
		<circle fill="#414041" cx="6.497" cy="48.255" r="4.367"/>
		<circle fill="#DADAD9" cx="6.497" cy="48.255" r="1.826"/>
	</g>
	<g>
		<circle fill="#414041" cx="26.029" cy="48.255" r="4.367"/>
		<circle fill="#DADAD9" cx="26.029" cy="48.255" r="1.826"/>
	</g>
	<rect x="15.151" y="41.506" fill="#414240" width="1.906" height="0.953"/>
</g>
</svg>
