<?xml version="1.0" encoding="utf-8"?>
<!-- Generator: Adobe Illustrator 17.0.2, SVG Export Plug-In . SVG Version: 6.00 Build 0)  -->
<!DOCTYPE svg PUBLIC "-//W3C//DTD SVG 1.1//EN" "http://www.w3.org/Graphics/SVG/1.1/DTD/svg11.dtd">
<svg version="1.1" id="Capa_1" xmlns="http://www.w3.org/2000/svg" xmlns:xlink="http://www.w3.org/1999/xlink" x="0px" y="0px"
	 width="38.5px" height="19.414px" viewBox="0 0 38.5 19.414" enable-background="new 0 0 38.5 19.414" xml:space="preserve">
<g>
	<g>
		<path fill="#414240" d="M15.086,0.606l10.957,0.06c0,0,1.906-0.06,2.977,0.953c1.072,1.012,6.312,6.848,6.312,6.848l-25.07-0.119
			L15.086,0.606z"/>
		<path fill="#666666" d="M15.694,1.42L26.49,1.452c0,0,1.049-0.033,1.639,0.525s2.999,3.294,2.999,3.294l-17.59-0.159L15.694,1.42z
			"/>
	</g>
	<path fill="#6FC3C8" d="M37.5,13.17v2.44l-9-0.03l-27-0.08v-2.33c0-0.58-0.05-1.13,0.09-1.67c0.25-1.06,0.7-2.04,1.39-2.86
		C3,8.62,3.01,8.6,3.03,8.58c0.94-1.12,2.2-2.16,3.66-2.54c0.59-0.16,1.19-0.46,1.83-0.46h21.75c0.64,0,1.27,0.3,1.86,0.46
		c1.49,0.39,2.79,1.35,3.74,2.49c0.01,0.02,0.03,0.03,0.04,0.05c0.67,0.81,1.15,1.82,1.4,2.87C37.44,11.98,37.5,12.59,37.5,13.17z"
		/>
	<path opacity="0.2" d="M37.5,13.17v2.44l-9-0.03l-27-0.08v-2.33c0-0.58-0.05-1.13,0.09-1.67c0.25-1.06,0.7-2.04,1.39-2.86
		C3,8.62,3.01,8.6,3.03,8.58h32.88c0.67,0.81,1.15,1.82,1.4,2.87C37.44,11.98,37.5,12.59,37.5,13.17z"/>
	<g>
		<circle fill="#414041" cx="10.481" cy="14.441" r="4.367"/>
		<circle fill="#DADAD9" cx="10.481" cy="14.441" r="1.826"/>
	</g>
	<g>
		<circle fill="#414041" cx="30.014" cy="14.441" r="4.367"/>
		<circle fill="#DADAD9" cx="30.014" cy="14.441" r="1.826"/>
	</g>
	<rect x="19.136" y="7.692" fill="#414240" width="1.906" height="0.953"/>
</g>
</svg>
