<?xml version="1.0" encoding="utf-8"?>
<!-- Generator: Adobe Illustrator 17.0.2, SVG Export Plug-In . SVG Version: 6.00 Build 0)  -->
<!DOCTYPE svg PUBLIC "-//W3C//DTD SVG 1.1//EN" "http://www.w3.org/Graphics/SVG/1.1/DTD/svg11.dtd">
<svg version="1.1" id="Capa_1" xmlns="http://www.w3.org/2000/svg" xmlns:xlink="http://www.w3.org/1999/xlink" x="0px" y="0px"
	 width="31.5px" height="30px" viewBox="0 0 31.5 30" enable-background="new 0 0 31.5 30" xml:space="preserve">
<g>
	<g>
		<g>
			<path fill="#ACACAC" d="M30,10.25v6H10.685C9.538,16.25,8,16.505,8,17.505c0,0.919,0,2.745,0,2.745H3.695
				c0,0-0.015-4.081-0.015-6.278c0-0.419,0.015-0.571,0.051-0.931c0.007-0.059,0.015,0.045,0.029-0.014
				c0.287-2.021,1.492-2.777,5.534-2.777H30z"/>
			<path opacity="0.1" d="M30,10.25v3H3.761c0.287-2,1.492-3,5.534-3H30z"/>
			<path fill="#A1A1A1" d="M30,9.25v8h-0.127c-1.448,0-3.873-1.043-3.873-2.491v-2.621c0-2.599,2.634-2.888,3.873-2.888H30z"/>
			<g>
				<path fill="#A1A1A1" d="M11.339,21.226c0,0.536-0.434,1.024-0.97,1.024H2.394c-0.544,0-0.978-0.48-0.978-1.017
					c0-0.125,0.022-0.218,0.074-0.336c0.044-0.154,0.118-0.243,0.213-0.339c0.176-0.176,0.419-0.309,0.691-0.309h7.974
					c0.412,0,0.764,0.267,0.904,0.672C11.317,21.039,11.339,21.101,11.339,21.226z"/>
				<path opacity="0.1" d="M11.273,21.25H1.491c0.044,0,0.118-0.419,0.213-0.515c0.176-0.176,0.419-0.485,0.691-0.485h7.974
					C10.78,20.25,11.133,20.25,11.273,21.25z"/>
			</g>
		</g>
		<rect x="14" y="2.25" fill="#A1A1A1" width="4" height="8"/>
		<rect x="14" y="2.25" opacity="0.1" width="4" height="3"/>
		<path fill="#A1A1A1" d="M21,7.276v9.035c0,0.781-0.049,0.939-0.92,0.939h-6.168c-0.871,0-2.912-0.158-2.912-0.939V7.276
			c0-0.781,2.041-1.026,2.912-1.026h6.168C20.951,6.25,21,6.495,21,7.276z"/>
		<ellipse fill="#669DD2" cx="16.37" cy="11.891" rx="2.817" ry="2.914"/>
		<path opacity="0.1" d="M21,7.276v3.974H11V7.276c0-0.781,2.041-1.026,2.912-1.026h6.168C20.951,6.25,21,6.495,21,7.276z"/>
		<g>
			<path fill="#BC5B41" d="M22,1.747v0.906c0,0.5-0.283,0.597-0.901,0.597h-8.938C11.545,3.25,10,3.153,10,2.653V1.747
				c0-0.397,1.362-0.497,1.794-0.497h9.669C21.89,1.25,22,1.351,22,1.747z"/>
			<path opacity="0.1" d="M22,1.747V2.25H10V1.747c0-0.397,1.362-0.497,1.794-0.497h9.669C21.89,1.25,22,1.351,22,1.747z"/>
		</g>
	</g>
	<path fill="#669DD2" d="M7.812,27.873c0,0.833-0.69,1.507-1.541,1.507s-1.541-0.675-1.541-1.507s1.541-4.351,1.541-4.351
		S7.812,27.041,7.812,27.873z"/>
</g>
</svg>
