<?xml version="1.0" encoding="utf-8"?>
<!-- Generator: Adobe Illustrator 17.0.2, SVG Export Plug-In . SVG Version: 6.00 Build 0)  -->
<!DOCTYPE svg PUBLIC "-//W3C//DTD SVG 1.1//EN" "http://www.w3.org/Graphics/SVG/1.1/DTD/svg11.dtd">
<svg version="1.1" id="Capa_1" xmlns="http://www.w3.org/2000/svg" xmlns:xlink="http://www.w3.org/1999/xlink" x="0px" y="0px"
	 width="308px" height="247px" viewBox="0 0 308 247" enable-background="new 0 0 308 247" xml:space="preserve">
<circle opacity="0.2" fill="#2E3C44" cx="151.833" cy="123.333" r="121"/>
<g>
	<g>
		<g>
			<path fill="#77563F" d="M248.408,72.824l0.256,0.398c0.957,1.487,0.424,2.924-1.192,3.964l-5.938,3.822L25.704,220.602
				c-1.616,1.04-3.526,0.878-4.491-0.621l-0.256-0.398c-0.957-1.487-0.623-3.773,0.993-4.813L237.988,75.009l5.715-3.679
				C245.32,70.29,247.444,71.325,248.408,72.824z"/>
			<path fill="#BC5B41" d="M262.702,20.709l19.534,30.377l21.045,32.75c-0.41,0.264-0.778,0.567-1.188,0.831
				c-1.043,0.671-2.107,1.307-3.176,1.911c-21.269,12.016-45.733,9.856-57.097-5.124c-0.466-0.595-0.904-1.224-1.318-1.868
				c-0.249-0.387-0.486-0.781-0.711-1.182c-0.553-0.936-1.047-1.91-1.487-2.902c-7.15-16.384,1.161-38.214,20.094-51.957
				c0.974-0.726,2.001-1.42,3.044-2.091C261.852,21.189,262.284,20.961,262.702,20.709z"/>
			<path fill="#943E2B" d="M263.342,17.431l20.838,32.403l21.106,32.844c0.957,1.487,0.362,3.444-1.255,4.485l-0.422,0.271
				c-1.616,1.04-3.752,0.99-4.717-0.509l-42.002-65.26c-0.965-1.499-0.091-3.486,1.526-4.527l0.422-0.271
				C260.455,15.827,262.385,15.944,263.342,17.431z"/>
		</g>
		<path opacity="0.1" d="M284.369,50.127l21.012,32.698c0.957,1.487,0.267,3.298-1.349,4.338l-0.422,0.271
			c-1.616,1.04-3.752,0.99-4.717-0.509l-0.151-0.234c-20.672,11.632-45.645,9.8-57.009-5.181L25.804,220.853
			c-1.616,1.04-3.625,0.627-4.59-0.872l0.068,0.105L284.369,50.127z"/>
		<path opacity="0.05" d="M258.792,16.898L304.02,87.17l-0.41,0.264c-1.616,1.04-3.752,0.99-4.717-0.509l-42.002-65.26
			c-0.965-1.499-0.091-3.486,1.526-4.527L258.792,16.898z"/>
		<path fill="none" stroke="#FFFFFF" stroke-width="3" stroke-linecap="round" stroke-miterlimit="10" d="M256.833,34.333
			c0,0-11,8.667-14.333,22.667"/>
	</g>
	<g>
		<path fill="#ACACAC" d="M260.31,186.583c-6.365-4.268-15.495-2.846-22.069-0.616L68.471,72.114
			c0.12-12.09-5.29-24.481-16.164-31.497C38.505,31.716,18.32,35.252,8.57,46.327c-0.015,0.023-0.043,0.048-0.059,0.071
			c-0.291,0.336-0.588,0.679-0.862,1.038c-0.271,0.338-0.527,0.687-0.77,1.033c-0.96,1.381-1.83,2.877-2.538,4.328
			c-0.12,0.262-0.241,0.524-0.356,0.779c-0.231,0.509-0.434,1.026-0.616,1.512c-0.082,0.222-0.141,0.425-0.195,0.621
			c-0.087,0.295-0.121,0.56-0.132,0.808c0.008,0.005,0.003,0.013-0.003,0.02c-0.162,3.277,5.01,2.231,5.01,2.231l15.535-2.261
			l1.586-0.227c6.304-1.249,12.376,2.871,13.62,9.183l0.309,1.568l0.946,4.403c0.46,2.366,0.208,4.701-0.657,6.766
			c-1.467,3.442-4.531,6.119-8.463,6.901l-17.258,3.754c0,0-7.242,0.295-2.295,6.744c1.633,2.135,3.627,4.212,6.022,5.674
			c12.378,7.593,32.35,5.861,42.088-5.311c30.619,20.534,164.65,110.418,164.65,110.418c-0.031,2.159,0.269,4.219,0.852,6.17
			c1.5,4.989,4.906,9.232,9.608,12.385c2.602,1.745,5.433,2.902,8.324,3.491c7.237,1.467,14.85-0.596,20.328-5.73
			c0.547-0.518,1.081-1.067,1.587-1.657c0.261-0.29,0.504-0.603,0.747-0.916c0.235-0.285,0.455-0.58,0.66-0.885l0.051-0.076
			c0.113-0.168,0.243-0.313,0.356-0.481C273.764,208.064,270.934,193.707,260.31,186.583z M257.683,213.499
			c-4.031,5.086-11.348,6.297-16.828,2.622c-5.487-3.68-7.152-10.915-3.976-16.574c0.015-0.023,0.028-0.059,0.044-0.081
			c0.154-0.262,0.312-0.532,0.486-0.791c3.864-5.762,11.675-7.295,17.444-3.426c5.762,3.864,7.301,11.667,3.436,17.429
			c-0.174,0.26-0.363,0.509-0.547,0.75C257.726,213.451,257.698,213.476,257.683,213.499z"/>
		<path opacity="0.1" d="M8.562,46.322L23.635,56.43l-15.56,2.3c0,0-6.546,1.347-4.702-3.646c0.77-2.106,2.032-4.498,3.508-6.617
			C7.392,47.736,7.951,47.018,8.562,46.322z"/>
		<path opacity="0.1" d="M266.305,219.17c-0.233,0.331-0.476,0.643-0.719,0.956c-0.243,0.313-0.494,0.621-0.754,0.91
			c-0.506,0.59-1.04,1.139-1.587,1.657c-5.558,5.268-13.125,7.263-20.328,5.73c-2.876-0.612-5.696-1.784-8.299-3.53
			c-4.701-3.153-8.117-7.38-9.633-12.346c-0.583-1.951-0.884-4.011-0.852-6.17c0,0-134.03-89.884-164.649-110.418
			c-9.738,11.172-29.709,12.904-42.087,5.311c-2.394-1.462-4.387-3.539-6.02-5.674c-4.947-6.449,2.299-6.745,2.299-6.745
			l17.267-3.755c3.932-0.782,7.013-3.462,8.48-6.904c0.887-2.082,1.185-4.439,0.717-6.81l-0.852-4.455l197.634,132.538
			c-0.015,0.023-0.028,0.059-0.044,0.081c-3.176,5.659-1.511,12.894,3.976,16.574c5.48,3.675,12.798,2.464,16.828-2.622
			c0.015-0.023,0.043-0.048,0.059-0.071L266.305,219.17z"/>
	</g>
	<g>
		<path fill="#AB4C36" d="M182.333,77.347v18.578c0,3.663-2.262,7.408-5.924,7.408h-5.076v-23h-44v23h-5.332
			c-3.663,0-7.668-3.746-7.668-7.408V77.347c0-3.663,4.005-6.014,7.668-6.014h54.408C180.072,71.333,182.333,73.684,182.333,77.347z
			"/>
		<path fill="#2F2E2E" d="M227.333,98.579v14.597c0,2.203-0.66,3.915-2.306,5.109c-1.101,0.809-2.04,1.048-3.5,1.048H75.556
			c-1.46,0-3.107-0.239-4.208-1.048c-1.645-1.194-3.014-2.906-3.014-5.109V98.579c0-3.663,3.56-6.246,7.222-6.246h145.972
			C225.19,92.333,227.333,94.917,227.333,98.579z"/>
		<path fill="#2F2E2E" d="M225.509,117.063l-0.066,1.414l-0.292,6.619l-2.296,50.515c0,3.663-2.973,6.723-6.635,6.723H80.864
			c-3.663,0-6.635-3.049-6.635-6.711l-2.296-50.465l-0.292-6.614l-0.066-1.471c0-3.663,2.973-6.739,6.635-6.739h140.664
			C222.536,110.333,225.509,113.4,225.509,117.063z"/>
		<path fill="#272727" d="M233.333,122.679c0,1.466-1.188,2.654-2.654,2.654H67.987c-1.466,0-2.654-1.188-2.654-2.654v-14.692
			c0-1.466,1.188-2.654,2.654-2.654h162.692c1.466,0,2.654,1.188,2.654,2.654V122.679z"/>
		<g>
			<path fill="#AA4D35" d="M127.333,129.887c0,0.799-0.648,1.446-1.446,1.446H102.78c-0.799,0-1.446-0.648-1.446-1.446V116.78
				c0-0.799,0.648-1.446,1.446-1.446h23.107c0.799,0,1.446,0.648,1.446,1.446V129.887z"/>
			<path opacity="0.1" d="M127.333,124.333v7.302c0,0.796-0.674,2.698-1.47,2.698h-23.647c-0.796,0-0.882-1.902-0.882-2.698v-7.302
				H127.333z"/>
		</g>
		<g>
			<path fill="#AA4D35" d="M196.333,129.887c0,0.799-0.648,1.446-1.446,1.446H171.78c-0.799,0-1.446-0.648-1.446-1.446V116.78
				c0-0.799,0.648-1.446,1.446-1.446h23.107c0.799,0,1.446,0.648,1.446,1.446V129.887z"/>
			<path opacity="0.1" d="M196.333,124.333v7.302c0,0.796,0.658,2.698-0.139,2.698h-23.647c-0.796,0-2.214-1.902-2.214-2.698v-7.302
				H196.333z"/>
		</g>
		<path opacity="0.1" d="M127.333,80.333v12h22v90h-68.47c-3.663,0-6.635-2.942-6.635-6.604l-2.296-50.396h-4.339
			c-1.46,0-2.26-1.408-2.26-2.868v-14.597c0-1.46,0.801-2.535,2.26-2.535h0.74v-6.754c0-3.663,3.56-6.246,7.222-6.246h38.778V77.347
			c0-3.663,4.005-6.014,7.668-6.014h27.332v9H127.333z"/>
	</g>
</g>
</svg>
