<?xml version="1.0" encoding="utf-8"?>
<!-- Generator: Adobe Illustrator 17.0.2, SVG Export Plug-In . SVG Version: 6.00 Build 0)  -->
<!DOCTYPE svg PUBLIC "-//W3C//DTD SVG 1.1//EN" "http://www.w3.org/Graphics/SVG/1.1/DTD/svg11.dtd">
<svg version="1.1" id="Capa_1" xmlns="http://www.w3.org/2000/svg" xmlns:xlink="http://www.w3.org/1999/xlink" x="0px" y="0px"
	 width="143px" height="128px" viewBox="0 0 143 128" enable-background="new 0 0 143 128" xml:space="preserve">
<g>
	<path opacity="0.2" fill="#FFFFFF" enable-background="new    " d="M79.59,72.037c-0.19,0.26-0.42,0.59-0.66,0.86
		c-5.09,6.63-12.43,11-20.62,12.43c-9.12,1.56-18.54-0.77-25.83-6.42c-14.49-11.13-17.18-31.99-6.02-46.45
		c0.17-0.24,0.37-0.45,0.56-0.67c5.05-6.26,12.17-10.43,20.08-11.79c8.1-1.36,16.46,0.33,23.34,4.71c0.38,0.24,0.76,0.49,1.13,0.76
		c7.58,5.36,12.3,13.28,13.8,21.76c0.03,0.1,0.04,0.19,0.05,0.29c0.05,0.31,0.1,0.62,0.14,0.93
		C86.61,56.857,84.51,65.197,79.59,72.037z"/>
	<g>
		<path fill="#DADADA" d="M132.43,79.577c-7.98-6.18-18.1-7.89-27.24-4.62l-4.66-3.61c8.31-21.13,1.65-45.32-16.47-59.34
			c-11.35-8.74-25.92-12.36-40.03-9.95c-12.5,2.14-23.63,8.74-31.51,18.63c-0.15,0.2-0.34,0.42-0.49,0.62
			c-8.38,10.85-11.99,24.33-10.28,37.94c1.76,13.6,8.73,25.71,19.58,34.1c11.32,8.71,25.93,12.36,40.04,9.94
			c7.91-1.35,15.4-4.55,21.8-9.28l4.54,3.53c-0.85,9.71,3.37,19.08,11.39,25.28c4.9,3.82,11.78,5.06,19.84,3.68
			c4.89-0.84,9.28-2.47,12.05-3.7c0.65-0.29,1.07-0.88,1.21-1.58c0.06-0.71-0.23-1.36-0.77-1.79l-17.96-13.86l3.6-4.84l3-3.99
			l17.89,13.77c0.54,0.42,1.26,0.53,1.89,0.27c0.68-0.27,1.13-0.84,1.22-1.53C142.06,103.087,143.14,87.857,132.43,79.577z
			 M78.93,72.897c-5.09,6.63-12.43,11-20.62,12.43c-9.12,1.56-18.54-0.77-25.83-6.42c-14.49-11.13-17.18-31.99-6.02-46.45
			c0.17-0.24,0.37-0.45,0.56-0.67c5.05-6.26,12.17-10.43,20.08-11.79c8.1-1.36,16.46,0.33,23.34,4.71c0.38,0.24,0.76,0.49,1.13,0.76
			c0.46,0.31,0.91,0.64,1.35,0.98c6.69,5.16,11.08,12.5,12.45,20.78c0.03,0.1,0.04,0.19,0.05,0.29c0.05,0.31,0.1,0.62,0.14,0.93
			c1.05,8.41-1.05,16.75-5.97,23.59C79.4,72.297,79.17,72.627,78.93,72.897z"/>
		<path fill="#D8D8D8" d="M35.473,35.16c-0.417-0.53-0.347-1.294,0.179-1.735c4.496-3.603,9.926-5.71,15.704-6.073
			c5.405-0.349,10.727,0.87,15.414,3.501c0.587,0.351,0.789,1.093,0.467,1.7c-0.193,0.334-0.509,0.539-0.875,0.601
			c-0.268,0.046-0.553-0.006-0.825-0.135c-4.247-2.406-9.102-3.53-14.035-3.211c-5.254,0.348-10.193,2.247-14.289,5.555
			C36.683,35.78,35.89,35.69,35.473,35.16z"/>
		<path fill="#D8D8D8" d="M70.884,37.016c-0.506-0.465-0.493-1.269-0.024-1.751c0.469-0.481,1.269-0.493,1.751-0.024
			c0.518,0.538,1.037,1.076,1.506,1.622c0.743,0.825,1.425,1.736,2.035,2.66c0.396,0.559,0.25,1.311-0.334,1.712
			c-0.134,0.098-0.3,0.152-0.47,0.181c-0.463,0.079-0.947-0.114-1.241-0.514c-0.568-0.83-1.185-1.652-1.843-2.417
			C71.827,37.983,71.365,37.485,70.884,37.016z"/>
		<g>
			<g>
				<path fill="#FFFFFF" d="M75.817,41.235c-0.134,0.098-0.3,0.152-0.47,0.181c-0.463,0.079-0.947-0.114-1.241-0.514
					c-0.568-0.83-1.185-1.652-1.843-2.417c-0.437-0.502-0.898-0.999-1.379-1.468c-0.506-0.465-0.493-1.269-0.024-1.751
					c0.469-0.481,1.269-0.493,1.751-0.024c0.518,0.538,1.037,1.076,1.506,1.622c0.743,0.825,1.425,1.736,2.035,2.66
					C76.547,40.082,76.401,40.834,75.817,41.235z"/>
			</g>
			<g>
				<path fill="#FFFFFF" d="M67.237,32.552c-0.193,0.334-0.509,0.539-0.875,0.601c-0.268,0.046-0.553-0.006-0.825-0.135
					c-4.247-2.406-9.102-3.53-14.035-3.211c-5.254,0.348-10.193,2.247-14.289,5.555c-0.53,0.417-1.323,0.327-1.739-0.203
					c-0.417-0.53-0.347-1.294,0.179-1.735c4.496-3.603,9.926-5.71,15.704-6.073c5.405-0.349,10.727,0.87,15.414,3.501
					C67.357,31.203,67.559,31.946,67.237,32.552z"/>
			</g>
		</g>
	</g>
	<path fill="#C9C9C9" enable-background="new    " d="M132.2,121.217c-0.14,0.7-0.56,1.29-1.21,1.58c-2.77,1.23-7.16,2.86-12.05,3.7
		c-8.06,1.38-14.94,0.14-19.84-3.68c-8.02-6.2-12.24-15.57-11.39-25.28l-4.54-3.53c-6.4,4.73-13.89,7.93-21.8,9.28
		c-14.11,2.42-28.72-1.23-40.04-9.94c-10.85-8.39-17.82-20.5-19.58-34.1c-1.71-13.61,1.9-27.09,10.28-37.94
		c0.15-0.2,0.34-0.42,0.49-0.62l13.68,10.47l0.82,0.63c-0.19,0.22-0.39,0.43-0.56,0.67c-11.16,14.46-8.47,35.32,6.02,46.45
		c7.29,5.65,16.71,7.98,25.83,6.42c8.19-1.43,15.53-5.8,20.62-12.43c0.24-0.27,0.47-0.6,0.66-0.86l0.34,0.26l37.14,28.43l-3.6,4.84
		l17.96,13.86C131.97,119.857,132.26,120.507,132.2,121.217z"/>
</g>
</svg>
